<?xml version="1.0" encoding="iso-8859-1"?>
<!-- Uploaded to: SVG Repo, www.svgrepo.com, Generator: SVG Repo Mixer Tools -->
<svg height="800px" width="800px" version="1.1" id="Layer_1" xmlns="http://www.w3.org/2000/svg" xmlns:xlink="http://www.w3.org/1999/xlink" 
	 viewBox="0 0 512 512" xml:space="preserve">
<path style="fill:#67A0C0;" d="M330.562,369.893L330.562,369.893c-36.974-44.757-104.806-46.987-144.639-4.755L256,497.811
	c52.402-0.131,102.406-14.768,142.952-38.605L330.562,369.893z"/>
<path style="fill:#E2C35A;" d="M185.923,365.138l-4.485,4.755c-33.195,19.391-58.155,51.332-68.39,89.314
	c10.903,6.371,22.271,12.03,34.036,16.927c9.724,4.048,19.72,7.571,29.956,10.532c25.066,7.252,51.557,11.146,78.959,11.146V334.87
	C230.53,334.9,205.011,344.9,185.923,365.138z"/>
<path style="fill:#5C889F;" d="M353.813,386.686l-0.08-0.002c0.016-0.009,0.032-0.017,0.047-0.026
	c-7.159-6.303-14.932-11.927-23.219-16.766l0,0c-19.256-23.309-46.881-35.055-74.562-35.022l-24.675,37.101l24.675,40.096
	c27.816,0,54.728-5.609,79.613-16.409c21.981,17.22,38.201,41.386,45.471,68.364l1.136,4.218c5.688-2.83,11.269-5.841,16.732-9.033
	C391.275,430.72,375.317,405.632,353.813,386.686z"/>
<path style="fill:#D9B43A;" d="M185.923,365.138l-4.485,4.755c-8.271,4.831-16.03,10.444-23.178,16.733
	c29.781,16.655,63.382,25.441,97.74,25.441V334.87C230.53,334.9,205.011,344.9,185.923,365.138z"/>
<path style="fill:#5C889F;" d="M334.959,486.666c10.235-2.961,20.232-6.486,29.956-10.532c-4.306-21.748-14.96-41.214-29.956-56.38
	V486.666z"/>
<path style="opacity:0.6;fill:#BB9430;enable-background:new    ;" d="M147.085,476.133c9.724,4.048,19.72,7.571,29.956,10.532
	v-66.914C162.046,434.919,151.392,454.384,147.085,476.133z"/>
<path style="fill:#D9B43A;" d="M320.733,369.259l-19.495-19.495H256l-37.012,45.648L256,485.474l49.654-49.653
	c5.889-5.889,5.889-15.436,0-21.325l0,0c-2.439-2.439-2.439-6.394,0-8.834l15.079-15.079
	C326.621,384.695,326.621,375.147,320.733,369.259z"/>
<path style="fill:#84B3C8;" d="M210.763,349.763l-19.495,19.495c-5.889,5.889-5.889,15.436,0,21.325l15.079,15.079
	c2.439,2.439,2.439,6.394,0,8.834l0,0c-5.889,5.889-5.889,15.436,0,21.325L256,485.474V349.763H210.763z"/>
<path style="fill:#BB9430;" d="M320.733,369.259l-19.495-19.495H256l-24.675,29.96L256,412.067c16.859,0,33.385-2.06,49.331-6.082
	l15.401-15.401C326.621,384.695,326.621,375.147,320.733,369.259z"/>
<path style="fill:#67A0C0;" d="M210.763,349.763l-19.495,19.495c-5.889,5.889-5.889,15.436,0,21.325l15.296,15.296
	c6.017,1.527,12.11,2.766,18.259,3.73c10.266,1.61,20.684,2.458,31.178,2.458v-62.304L210.763,349.763L210.763,349.763z"/>
<polygon style="fill:#D5D2BD;" points="291.778,379.723 256,415.502 220.222,379.723 "/>
<path style="fill:#5C889F;" d="M446.986,109.412C413.224,75.476,334.612,58.507,256,58.507l-98.699,140.741L256,329.928
	c75.852,0,151.706-13.643,190.986-40.928C483.73,263.476,495.995,158.675,446.986,109.412z"/>
<path style="fill:#67A0C0;" d="M65.014,109.412c-49.009,49.263-36.746,154.064,0,179.589
	c39.28,27.285,115.132,40.928,190.986,40.928V58.507C177.388,58.507,98.777,75.476,65.014,109.412z"/>
<path style="fill:#C1BDAB;" d="M447.229,156.067c-9.049,0-17.586,2.179-25.135,6.021C405.471,99.203,359.097,41.722,300.479,21.698
	l-135.15,336.913c26.354,16.29,57.412,25.696,90.671,25.696c78.282,0,144.389-52.083,165.589-123.483
	c7.671,4.003,16.388,6.279,25.639,6.279c30.662,0,55.518-24.856,55.518-55.518S477.891,156.067,447.229,156.067z"/>
<path style="fill:#E7E4CD;" d="M391.711,193.079c0-65.92-36.933-134.989-91.231-171.382c-14.193-4.849-29.1-7.51-44.48-7.51
	c-78.904,0-145.446,69.79-166.094,147.9c-7.548-3.841-16.084-6.021-25.135-6.021c-30.662,0-55.518,24.856-55.518,55.518
	s24.856,55.518,55.518,55.518c9.252,0,17.968-2.276,25.639-6.278c12.193,41.065,39.243,75.737,74.917,97.788
	c18.286,4.67,36.48,7.19,53.659,7.19C314.38,365.802,391.711,288.471,391.711,193.079z"/>
<circle style="fill:#C1BDAB;" cx="64.771" cy="211.585" r="18.506"/>
<circle style="fill:#ADA999;" cx="447.229" cy="211.585" r="18.506"/>
<path style="fill:#CE9276;" d="M256,298.432c-12.357,0-23.975-4.812-32.714-13.55c-10.824-10.826-10.822-28.438,0.001-39.26
	c5.243-5.242,12.213-8.128,19.627-8.128c4.641,0,9.107,1.131,13.086,3.263c3.979-2.133,8.446-3.263,13.085-3.263
	c7.416,0,14.388,2.888,19.63,8.132c10.821,10.82,10.822,28.43,0,39.254C279.975,293.62,268.357,298.432,256,298.432z"/>
<circle style="fill:#8D472E;" cx="256" cy="226.39" r="18.506"/>
<path style="fill:#AB5034;" d="M249.214,230.091c-5.103,0-9.253-4.15-9.253-9.253c0-5.103,4.15-9.253,9.253-9.253
	c5.103,0,9.253,4.15,9.253,9.253C258.467,225.941,254.317,230.091,249.214,230.091z"/>
<path style="fill:#67A0C0;" d="M137.54,72.843c-12.063,13.685-40.742,45.595-40.742,45.595s-2.928,28.644-6.894,43.65
	c10.631,5.41,19.288,14.139,24.603,24.823c4.575,0,8.584-3.108,9.671-7.552c2.678-10.947,6.686-21.37,11.843-31.09
	c4.986-9.399,7.977-19.52,9.067-29.829c1.606-15.211-0.933-30.834-7.353-45.157C137.67,73.135,137.606,72.988,137.54,72.843z"/>
<path style="fill:#5C889F;" d="M374.46,72.843c12.063,13.685,40.742,45.595,40.742,45.595s2.928,28.644,6.894,43.65
	c-10.631,5.41-19.288,14.139-24.603,24.823c-4.575,0-8.584-3.108-9.671-7.552c-2.678-10.947-6.686-21.37-11.843-31.09
	c-4.986-9.399-7.977-19.52-9.067-29.829c-1.606-15.211,0.933-30.834,7.353-45.157C374.33,73.135,374.394,72.988,374.46,72.843z"/>
<g>
	<path style="fill:#000015;" d="M512,211.585c0-21.567-10.906-41.817-28.708-53.787c-5.713-22.115-15.948-41.043-29.748-54.912
		c-15.932-16.015-40.851-28.862-74.045-38.226c-22.055-24.371-48.282-42.241-76.029-51.718C287.917,7.629,271.946,4.934,256,4.934
		c-36.596,0-72.478,14.014-103.767,40.527c-3.899,3.304-4.381,9.143-1.077,13.042c3.304,3.9,9.143,4.38,13.041,1.078
		C192.097,35.937,223.844,23.44,256,23.44c13.905,0,27.865,2.36,41.488,7.014c24.803,8.473,48.392,24.583,68.354,46.66
		c0.898,1.974,2.49,3.644,4.623,4.604c1.234,0.555,2.523,0.818,3.794,0.818c0.121,0,0.241-0.021,0.361-0.026
		c29.626,8.383,52.357,19.91,65.805,33.427c8.491,8.534,15.393,19.528,20.394,32.329c-4.45-0.955-9.004-1.452-13.591-1.452
		c-10.207,0-19.991,2.322-29.087,6.903c-0.159,0.075-0.317,0.155-0.471,0.239c-8.641,4.44-16.217,10.847-22.08,18.565
		c-2.776-9.898-6.614-19.494-11.438-28.589c-4.344-8.192-7.05-17.097-8.039-26.466c-0.639-6.043-0.539-12.229,0.296-18.385
		c0.688-5.063-2.861-9.726-7.926-10.413c-5.058-0.687-9.727,2.861-10.411,7.926c-1.035,7.624-1.157,15.301-0.364,22.818
		c1.24,11.733,4.636,22.901,10.094,33.194c4.858,9.158,8.568,18.9,11.03,28.957c1.049,4.281,3.577,8.101,7.12,10.756
		c3.359,2.518,7.349,3.848,11.539,3.848c3.511,0,6.72-1.988,8.285-5.131c4.407-8.858,11.693-16.209,20.515-20.697
		c0.006-0.004,0.014-0.006,0.02-0.01c6.535-3.32,13.572-5.004,20.919-5.004c8.192,0,16.251,2.18,23.305,6.304
		c14.162,8.282,22.96,23.594,22.96,39.961c0,19.244-12.117,36.676-30.15,43.378c-5.156,1.916-10.577,2.887-16.115,2.887
		c-5.148,0-10.134-0.844-14.902-2.476c3.572-15.272,5.649-31.149,5.649-43.793c0-5.103,4.15-9.253,9.253-9.253
		c5.103,0,9.253,4.15,9.253,9.253c0,5.11,4.142,9.253,9.253,9.253c5.111,0,9.253-4.143,9.253-9.253
		c0-15.307-12.453-27.759-27.759-27.759s-27.759,12.452-27.759,27.759c0,13.347-2.634,30.922-7.045,47.015
		c-0.116,0.424-0.19,0.85-0.244,1.276c-5.134,16.622-12.86,32.276-23.03,46.533c-17.936,25.144-42.204,44.402-70.105,56.041
		c-0.248,0.094-0.493,0.196-0.734,0.312c-9.443,3.884-19.297,6.898-29.459,8.972c-0.079,0.016-0.153,0.047-0.231,0.065
		c-10.666,2.159-21.638,3.257-32.621,3.257c-5.111,0-9.253,4.143-9.253,9.253c0,5.11,4.142,9.253,9.253,9.253
		c3.029,0,6.058-0.077,9.082-0.226l-9.082,9.082l-28.162-28.162c-1.283-1.283-2.914-2.16-4.693-2.523
		c-18.821-3.842-36.635-10.904-52.951-20.988c-18.647-11.528-34.574-26.443-47.337-44.332
		c-10.177-14.259-17.904-29.913-23.038-46.534c-0.054-0.424-0.128-0.85-0.244-1.276c-4.412-16.095-7.046-33.671-7.046-47.018
		c0-15.307-12.453-27.759-27.759-27.759s-27.759,12.452-27.759,27.759c0,5.11,4.142,9.253,9.253,9.253s9.253-4.143,9.253-9.253
		c0-5.103,4.15-9.253,9.253-9.253s9.253,4.15,9.253,9.253c0,12.643,2.078,28.52,5.649,43.789c-4.768,1.632-9.754,2.476-14.902,2.476
		c-5.537,0-10.959-0.971-16.114-2.887c-18.035-6.702-30.151-24.134-30.151-43.378c0-16.367,8.798-31.679,22.959-39.961
		c7.056-4.124,15.114-6.304,23.306-6.304c7.347,0,14.384,1.684,20.919,5.004c0.006,0.004,0.014,0.006,0.02,0.01
		c8.821,4.488,16.108,11.839,20.515,20.697c1.564,3.144,4.773,5.131,8.285,5.131c8.882,0,16.555-6.006,18.66-14.606
		c2.46-10.054,6.17-19.795,11.028-28.955c5.458-10.292,8.855-21.46,10.094-33.192c1.778-16.844-1.026-34.104-8.132-49.958
		l-0.138-0.308c-1.255-2.877-3.881-4.92-6.977-5.431c-0.433-0.072-0.866-0.101-1.298-0.11c-0.127-0.002-0.254,0.001-0.381,0.004
		c-0.327,0.006-0.653,0.03-0.975,0.07c-0.114,0.015-0.228,0.023-0.341,0.042c-0.398,0.065-0.793,0.148-1.179,0.264
		c-34.395,9.418-60.103,22.506-76.418,38.905c-8.16,8.203-15.065,18.1-20.523,29.417c-2.221,4.603-0.289,10.134,4.313,12.355
		c1.297,0.624,2.665,0.922,4.015,0.922c3.441,0,6.745-1.928,8.34-5.236c4.561-9.457,10.272-17.667,16.975-24.406
		c12.633-12.696,33.438-23.643,60.468-31.874c3.693,10.828,5.025,22.239,3.847,33.402c-0.991,9.37-3.695,18.275-8.04,26.466
		c-4.824,9.095-8.662,18.692-11.438,28.591c-5.855-7.707-13.418-14.107-22.043-18.546c-0.178-0.097-0.357-0.189-0.54-0.275
		c-9.086-4.572-18.86-6.889-29.056-6.889c-11.471,0-22.76,3.055-32.647,8.836C12.31,167.237,0,188.67,0,211.585
		c0,25.66,15.398,49.01,38.681,59.28c5.842,11.424,12.911,20.078,21.055,25.736c12.86,8.933,29.65,16.7,49.922,23.108
		c13.877,18.769,30.949,34.5,50.805,46.775c5.655,3.496,11.475,6.66,17.438,9.497c-1.246,7.517,1.087,15.411,6.824,21.147
		l13.083,13.083c-3.326,4.255-5.13,9.464-5.13,14.95c0,6.499,2.532,12.61,7.126,17.204l46.944,46.944v8.504
		c0,5.11,4.142,9.253,9.253,9.253c5.111,0,9.253-4.143,9.253-9.253v-8.504l46.942-46.944c4.597-4.596,7.127-10.706,7.127-17.206
		c0-5.486-1.804-10.695-5.13-14.95l13.082-13.081c3.922-3.922,6.239-8.855,6.927-13.984c4.694,3.209,9.2,6.707,13.464,10.461
		c0.007,0.006,0.016,0.012,0.023,0.019c0.003,0.003,0.004,0.005,0.006,0.006c20.59,18.14,35.226,41.648,42.321,67.984
		c1.113,4.128,4.849,6.848,8.929,6.848c0.797,0,1.608-0.104,2.413-0.321c4.935-1.33,7.856-6.407,6.528-11.342
		c-8.045-29.859-24.629-56.504-47.957-77.055c-0.01-0.009-0.02-0.015-0.028-0.022c-0.002-0.002-0.004-0.004-0.006-0.006
		c-4.18-3.68-8.571-7.137-13.122-10.36c21.536-12.398,40.468-29.211,55.58-49.65c20.265-6.407,37.05-14.171,49.912-23.105
		c8.143-5.658,15.212-14.31,21.054-25.734C496.602,260.596,512,237.247,512,211.585z M64.576,276.352
		c0.065,0,0.13,0.004,0.195,0.004c6.774,0,13.534-1.078,19.964-3.16c2.583,7.184,5.638,14.178,9.109,20.972
		c-9.074-3.92-16.953-8.186-23.55-12.768C68.339,280.044,66.427,278.349,64.576,276.352z M212.89,429.277
		c-1.1-1.1-1.706-2.564-1.706-4.118c0-1.556,0.606-3.019,1.707-4.121c6.04-6.043,6.04-15.874-0.001-21.919l-15.079-15.079
		c-0.002-0.002-0.004-0.005-0.006-0.007c6.177,2.08,12.477,3.833,18.885,5.245l30.057,30.056v43.8L212.89,429.277z M314.19,384.041
		l-15.081,15.08c-6.04,6.043-6.04,15.874,0.001,21.919c1.1,1.1,1.706,2.564,1.706,4.119s-0.606,3.019-1.708,4.119l-33.856,33.856
		v-43.8l30.053-30.054c6.42-1.414,12.722-3.174,18.892-5.25C314.195,384.035,314.193,384.038,314.19,384.041z M441.707,281.401
		c-6.598,4.582-14.477,8.85-23.548,12.768c3.469-6.794,6.523-13.788,9.106-20.972c6.43,2.081,13.189,3.16,19.964,3.16
		c0.065,0,0.13-0.004,0.195-0.004C445.573,278.349,443.662,280.044,441.707,281.401z"/>
	<circle style="fill:#000015;" cx="194.313" cy="214.052" r="18.506"/>
	<circle style="fill:#000015;" cx="317.687" cy="214.052" r="18.506"/>
	<path style="fill:#000015;" d="M174.292,152.461c-12.856,4.189-24.343,12.543-32.347,23.529c-3.009,4.131-2.101,9.918,2.029,12.927
		c1.645,1.198,3.552,1.775,5.442,1.775c2.856,0,5.675-1.319,7.485-3.805c5.729-7.863,13.941-13.839,23.123-16.831
		c4.858-1.583,7.515-6.805,5.932-11.665C184.373,153.534,179.154,150.878,174.292,152.461z"/>
	<path style="fill:#000015;" d="M370.054,175.989c-8.003-10.985-19.492-19.341-32.347-23.529
		c-4.863-1.583-10.081,1.075-11.664,5.932c-1.583,4.858,1.072,10.081,5.932,11.665c9.181,2.991,17.394,8.968,23.123,16.831
		c1.811,2.486,4.629,3.805,7.485,3.805c1.89,0,3.797-0.577,5.442-1.775C372.155,185.907,373.064,180.12,370.054,175.989z"/>
	<path style="fill:#000015;" d="M164.333,393.604c3.836-3.377,4.207-9.223,0.83-13.059c-3.377-3.837-9.226-4.207-13.059-0.83
		c-23.346,20.555-39.941,47.21-47.991,77.085c-1.329,4.935,1.593,10.012,6.528,11.342c0.806,0.217,1.616,0.321,2.413,0.321
		c4.08,0,7.816-2.72,8.929-6.848C129.083,435.265,143.728,411.747,164.333,393.604z"/>
	<path style="fill:#000015;" d="M341.54,413.248c-3.595-3.635-9.454-3.667-13.085-0.075c-3.635,3.593-3.669,9.452-0.077,13.085
		c14.094,14.255,23.589,32.123,27.459,51.673c0.872,4.407,4.74,7.458,9.068,7.458c0.595,0,1.2-0.058,1.807-0.179
		c5.013-0.992,8.272-5.86,7.279-10.873C369.414,451.214,358.191,430.091,341.54,413.248z"/>
	<path style="fill:#000015;" d="M170.46,413.248c-16.652,16.844-27.874,37.968-32.452,61.09c-0.993,5.013,2.268,9.881,7.279,10.873
		c0.607,0.121,1.212,0.179,1.807,0.179c4.328,0,8.196-3.051,9.068-7.458c3.87-19.55,13.365-37.418,27.459-51.673
		c3.593-3.635,3.559-9.492-0.076-13.085C179.913,409.58,174.054,409.612,170.46,413.248z"/>
	<path style="fill:#000015;" d="M167.171,229.474h-12.337c-5.111,0-9.253,4.143-9.253,9.253s4.142,9.253,9.253,9.253h12.337
		c5.111,0,9.253-4.143,9.253-9.253S172.282,229.474,167.171,229.474z"/>
	<path style="fill:#000015;" d="M344.829,229.474c-5.111,0-9.253,4.143-9.253,9.253s4.142,9.253,9.253,9.253h12.337
		c5.111,0,9.253-4.143,9.253-9.253s-4.142-9.253-9.253-9.253H344.829z"/>
</g>
<path style="fill:#00000E;" d="M256,254.149c-15.306,0-27.759-12.452-27.759-27.759c0-5.11,4.142-9.253,9.253-9.253
	c5.111,0,9.253,4.143,9.253,9.253c0,5.103,4.15,9.253,9.253,9.253s9.253-4.15,9.253-9.253c0-5.11,4.142-9.253,9.253-9.253
	c5.111,0,9.253,4.143,9.253,9.253C283.759,241.697,271.306,254.149,256,254.149z"/>
<path style="fill:#000015;" d="M256,279.926c-7.415,0-14.385-2.888-19.629-8.13c-3.614-3.614-3.614-9.473,0.001-13.086
	c3.614-3.612,9.473-3.612,13.085,0c1.747,1.748,4.071,2.711,6.542,2.711s4.796-0.962,6.542-2.711c3.615-3.614,9.474-3.614,13.085,0
	c3.615,3.614,3.615,9.473,0.001,13.086C270.385,277.038,263.415,279.926,256,279.926z"/>
</svg>