<?xml version="1.0" encoding="iso-8859-1"?>
<!-- Uploaded to: SVG Repo, www.svgrepo.com, Generator: SVG Repo Mixer Tools -->
<svg version="1.1" id="Layer_1" xmlns="http://www.w3.org/2000/svg" xmlns:xlink="http://www.w3.org/1999/xlink" 
	 viewBox="0 0 512 512" xml:space="preserve">
<polygon style="fill:#D9D9D9;" points="341.512,213.244 362.889,213.244 362.889,157.662 149.111,157.662 149.111,213.244 
	170.489,213.244 80.701,503.983 431.299,503.983 "/>
<rect x="149.111" y="157.662" style="fill:#FF675C;" width="213.779" height="55.582"/>
<rect x="149.111" y="157.662" style="fill:#DB3D5A;" width="38.48" height="55.582"/>
<rect x="247.096" y="157.662" style="fill:#FFC2BE;" width="49.169" height="55.582"/>
<g>
	<circle style="fill:#5CC4E0;" cx="317.996" cy="104.217" r="23.516"/>
	<circle style="fill:#5CC4E0;" cx="262.413" cy="27.257" r="19.24"/>
	<circle style="fill:#5CC4E0;" cx="194.004" cy="87.115" r="23.516"/>
	<polygon style="fill:#5CC4E0;" points="128.235,350.084 383.872,350.405 431.299,503.983 80.701,503.983 	"/>
</g>
<polygon style="fill:#B3B3B3;" points="350.095,241.035 341.512,213.244 170.489,213.244 128.235,350.084 166.7,350.132 
	166.715,350.084 200.388,241.035 "/>
<polygon style="fill:#439EE8;" points="128.235,350.084 80.701,503.983 119.182,503.983 166.7,350.132 "/>
<path d="M438.958,501.618l-86.58-280.357h10.512c4.427,0,8.017-3.589,8.017-8.017v-55.582c0-4.427-3.589-8.017-8.017-8.017H149.111
	c-4.427,0-8.017,3.589-8.017,8.017v55.582c0,4.427,3.589,8.017,8.017,8.017h10.513l-53.568,173.468
	c-1.306,4.231,1.064,8.719,5.294,10.025c0.788,0.244,1.584,0.359,2.369,0.359c3.424,0,6.594-2.21,7.658-5.653l55.027-178.198
	h159.194l84.836,274.706H91.568l17.262-55.889c1.306-4.231-1.064-8.719-5.294-10.025c-4.23-1.306-8.719,1.064-10.025,5.294
	l-20.468,66.271c-0.751,2.432-0.302,5.077,1.209,7.125c1.51,2.048,3.906,3.257,6.451,3.257h350.597c2.545,0,4.94-1.209,6.451-3.257
	C439.261,506.694,439.71,504.051,438.958,501.618z M157.127,165.678h197.745v39.549H157.127V165.678z"/>
<path d="M317.996,135.749c17.387,0,31.532-14.146,31.532-31.532s-14.146-31.532-31.532-31.532
	c-17.387,0-31.532,14.146-31.532,31.532S300.609,135.749,317.996,135.749z M317.996,88.718c8.546,0,15.499,6.953,15.499,15.499
	s-6.953,15.499-15.499,15.499c-8.546,0-15.499-6.953-15.499-15.499S309.45,88.718,317.996,88.718z"/>
<path d="M262.413,54.514c15.03,0,27.257-12.227,27.257-27.257S277.443,0,262.413,0c-15.03,0-27.257,12.227-27.257,27.257
	S247.384,54.514,262.413,54.514z M262.413,16.033c6.189,0,11.223,5.034,11.223,11.223s-5.034,11.223-11.223,11.223
	c-6.189,0-11.223-5.034-11.223-11.223S256.224,16.033,262.413,16.033z"/>
<path d="M194.004,118.647c17.387,0,31.532-14.146,31.532-31.532s-14.146-31.532-31.532-31.532s-31.532,14.146-31.532,31.532
	S176.618,118.647,194.004,118.647z M194.004,71.616c8.546,0,15.499,6.953,15.499,15.499s-6.953,15.499-15.499,15.499
	c-8.546,0-15.499-6.953-15.499-15.499S185.458,71.616,194.004,71.616z"/>
<path d="M226.071,281.119h59.858c4.427,0,8.017-3.589,8.017-8.017c0-4.427-3.589-8.017-8.017-8.017h-59.858
	c-4.427,0-8.017,3.589-8.017,8.017C218.054,277.53,221.644,281.119,226.071,281.119z"/>
<path d="M226.071,319.599h59.858c4.427,0,8.017-3.589,8.017-8.017c0-4.427-3.589-8.017-8.017-8.017h-59.858
	c-4.427,0-8.017,3.589-8.017,8.017C218.054,316.01,221.644,319.599,226.071,319.599z"/>
<path d="M226.071,358.079h59.858c4.427,0,8.017-3.589,8.017-8.017c0-4.427-3.589-8.017-8.017-8.017h-59.858
	c-4.427,0-8.017,3.589-8.017,8.017C218.054,354.49,221.644,358.079,226.071,358.079z"/>
<path d="M226.071,396.56h59.858c4.427,0,8.017-3.589,8.017-8.017c0-4.427-3.589-8.017-8.017-8.017h-59.858
	c-4.427,0-8.017,3.589-8.017,8.017C218.054,392.97,221.644,396.56,226.071,396.56z"/>
<path d="M226.071,435.04h59.858c4.427,0,8.017-3.589,8.017-8.017c0-4.427-3.589-8.017-8.017-8.017h-59.858
	c-4.427,0-8.017,3.589-8.017,8.017C218.054,431.45,221.644,435.04,226.071,435.04z"/>
<path d="M226.071,473.52h59.858c4.427,0,8.017-3.589,8.017-8.017s-3.589-8.017-8.017-8.017h-59.858
	c-4.427,0-8.017,3.589-8.017,8.017S221.644,473.52,226.071,473.52z"/>
</svg>