<?xml version="1.0" encoding="iso-8859-1"?>
<!-- Uploaded to: SVG Repo, www.svgrepo.com, Generator: SVG Repo Mixer Tools -->
<svg height="800px" width="800px" version="1.1" id="Layer_1" xmlns="http://www.w3.org/2000/svg" xmlns:xlink="http://www.w3.org/1999/xlink" 
	 viewBox="0 0 512 512" xml:space="preserve">
<polygon style="fill:#E9E9EA;" points="512,399.466 0,383.189 0,320.488 512,304.211 "/>
<polygon style="fill:#D9D8DB;" points="512,399.466 0,383.189 0,351.838 512,351.838 "/>
<polygon style="fill:#CA3486;" points="512,304.211 428.018,306.881 428.018,396.796 512,399.466 "/>
<polygon style="fill:#952967;" points="512,351.838 428.018,351.838 428.018,396.796 512,399.466 "/>
<g>
	<path style="fill:#7F7F80;" d="M444.104,270.083h-33.391c0-17.131,4.708-26.388,8.494-33.827c2.928-5.757,4.863-9.56,4.863-18.686
		c0-9.128-1.934-12.931-4.864-18.69c-3.783-7.438-8.493-16.697-8.493-33.829s4.708-26.389,8.493-33.828
		c2.93-5.759,4.864-9.562,4.864-18.69h33.391c0,17.132-4.708,26.389-8.493,33.829c-2.93,5.758-4.864,9.562-4.864,18.689
		c0,9.128,1.934,12.931,4.864,18.69c3.783,7.438,8.493,16.697,8.493,33.829c0,17.131-4.708,26.388-8.494,33.825
		C446.039,257.154,444.104,260.957,444.104,270.083z"/>
	<path style="fill:#7F7F80;" d="M501.407,270.083h-33.391c0-13.884,3.955-21.658,6.842-27.334c2.138-4.204,3.212-6.314,3.212-12.193
		c0-5.88-1.074-7.992-3.213-12.197c-2.887-5.677-6.841-13.45-6.841-27.336c0-13.886,3.955-21.659,6.841-27.336
		c2.139-4.205,3.213-6.315,3.213-12.197h33.391c0,13.885-3.955,21.659-6.841,27.335c-2.139,4.205-3.213,6.315-3.213,12.197
		s1.074,7.992,3.213,12.197c2.887,5.677,6.841,13.45,6.841,27.335c0,13.884-3.955,21.658-6.842,27.334
		C502.481,262.093,501.407,264.203,501.407,270.083z"/>
</g>
</svg>